<svg xmlns="http://www.w3.org/2000/svg" viewBox="0 0 32 32">
  <circle cx="16" cy="16" r="15" fill="#080E1A" stroke="#D9A84F" stroke-width="1.5"/>
  <!-- Top: Gold -->
  <path d="M16,5 C18.5,9 20,12 20,14 C20,16.2 18.2,17 16,17 C13.8,17 12,16.2 12,14 C12,12 13.5,9 16,5Z" fill="#D9A84F"/>
  <!-- Left: Blue -->
  <path d="M5,16 C9,13.5 12,12 14,12 C16.2,12 17,13.8 17,16 C17,18.2 16.2,20 14,20 C12,20 9,18.5 5,16Z" fill="#2E86DE"/>
  <!-- Right: Green -->
  <path d="M27,16 C23,18.5 20,20 18,20 C15.8,20 15,18.2 15,16 C15,13.8 15.8,12 18,12 C20,12 23,13.5 27,16Z" fill="#27A85B"/>
  <!-- Bottom: Cream -->
  <path d="M16,27 C13.5,23 12,20 12,18 C12,15.8 13.8,15 16,15 C18.2,15 20,15.8 20,18 C20,20 18.5,23 16,27Z" fill="#F0E6CC"/>
</svg>